<?xml version="1.0" encoding="UTF-8"?><svg id="Layer_1" xmlns="http://www.w3.org/2000/svg" viewBox="0 0 264 200"><defs><style>.cls-1{fill:#58b992;}.cls-2{fill:#525252;}.cls-3{fill:#6ee7b7;}.cls-4{fill:#428b6e;}.cls-5{fill:#fff;}.cls-6{fill:#a3a3a3;}.cls-7{fill:#424242;}</style></defs><polygon class="cls-4" points="132 196 132 192 120 192 120 180 112 180 112 192 108 192 108 196 104 196 104 200 136 200 136 196 132 196"/><polygon class="cls-1" points="176 120 176 116 88 116 88 120 84 120 84 180 88 180 88 184 176 184 176 180 180 180 180 120 176 120"/><rect class="cls-3" x="120" y="120" width="56" height="60"/><polygon points="140 156 140 172 148 172 148 156 140 156"/><polygon points="160 156 160 172 168 172 168 156 160 156"/><rect class="cls-7" x="100" y="128" width="8" height="36"/><rect class="cls-2" x="108" y="128" width="4" height="36"/><polygon class="cls-6" points="84 96 84 100 80 100 80 104 76 104 76 108 72 108 72 112 68 112 68 116 64 116 64 120 60 120 60 128 112 128 112 96 84 96"/><polygon class="cls-5" points="112 96 112 128 140 128 140 96 112 96"/><polygon class="cls-4" points="100 164 100 160 116 160 116 148 104 148 104 152 96 152 96 148 88 148 88 164 100 164"/><polygon class="cls-4" points="168 196 168 192 156 192 156 184 148 184 148 192 144 192 144 196 140 196 140 200 172 200 172 196 168 196"/></svg>